<svg version="1.2" xmlns="http://www.w3.org/2000/svg" viewBox="0 0 24 24" width="24" height="24">
	<title>arrow-small-left-svg</title>
	<style>
		.s0 { fill: #cacaca } 
	</style>
	<g id="Layer 1">
		<path id="Layer" fill-rule="evenodd" class="s0" d="m22.3 10.6h-17.2l5.7-5.7q0.2-0.2 0.4-0.5 0.1-0.3 0.1-0.7 0-0.3-0.1-0.6-0.2-0.4-0.4-0.6-0.3-0.2-0.6-0.4-0.3-0.1-0.6-0.1-0.4 0-0.7 0.1-0.3 0.2-0.5 0.4l-7.4 7.4q-0.2 0.2-0.4 0.5-0.2 0.3-0.3 0.6-0.2 0.3-0.2 0.6-0.1 0.3-0.1 0.7 0 0.3 0.1 0.7 0 0.3 0.2 0.6 0.1 0.3 0.3 0.6 0.2 0.3 0.4 0.5l7.4 7.4c0.3 0.3 0.7 0.5 1.2 0.5 0.4 0 0.9-0.2 1.2-0.6 0.3-0.3 0.5-0.7 0.5-1.2 0-0.4-0.2-0.9-0.5-1.2l-5.7-5.6h17.2c0.4 0 0.9-0.2 1.2-0.5 0.3-0.3 0.5-0.8 0.5-1.2 0-0.5-0.2-0.9-0.5-1.2-0.3-0.3-0.8-0.5-1.2-0.5z"/>
	</g>
</svg>