<svg version="1.2" xmlns="http://www.w3.org/2000/svg" viewBox="0 0 24 24" width="24" height="24">
	<title>bell-svg</title>
	<style>
		.s0 { fill: #ffffff } 
	</style>
	<g id="Layer 1">
		<path id="Layer" class="s0" d="m4.1 18h15.6q0.8 0 1.4-0.3 0.7-0.4 1.1-1 0.4-0.6 0.5-1.3 0.1-0.7-0.2-1.4l-2.8-7.9q-0.4-1.3-1.1-2.4-0.8-1.2-1.9-2-1.1-0.8-2.4-1.3-1.3-0.4-2.6-0.4-1.4 0-2.8 0.5-1.3 0.4-2.4 1.3-1.1 0.9-1.9 2.1-0.7 1.2-1 2.6l-2.4 7.6q-0.2 0.7-0.1 1.4 0.1 0.7 0.6 1.3 0.4 0.6 1 0.9 0.7 0.3 1.4 0.3z"/>
		<path id="Layer" class="s0" d="m7.1 20c0.2 1.1 0.8 2.1 1.7 2.9 0.9 0.7 2 1.1 3.2 1.1 1.2 0 2.3-0.4 3.2-1.1 0.9-0.8 1.5-1.8 1.7-2.9z"/>
	</g>
</svg>