<?xml version="1.0" encoding="UTF-8" standalone="no" ?>
<!DOCTYPE svg PUBLIC "-//W3C//DTD SVG 1.1//EN" "http://www.w3.org/Graphics/SVG/1.1/DTD/svg11.dtd">
<svg xmlns="http://www.w3.org/2000/svg" xmlns:xlink="http://www.w3.org/1999/xlink" version="1.1" width="512" height="512" viewBox="0 0 512 512" xml:space="preserve">
<desc>Created with Fabric.js 5.3.0</desc>
<defs>
</defs>
<g transform="matrix(21.3333333333 0 0 21.3333333333 256 256)" id="g9t7y0-uhqwTfVUDlFkJF"  >
<path style="stroke: none; stroke-width: 1; stroke-dasharray: none; stroke-linecap: butt; stroke-dashoffset: 0; stroke-linejoin: miter; stroke-miterlimit: 4; fill: rgb(255,255,255); fill-rule: nonzero; opacity: 1;"  transform=" translate(-11.9311850041, -12.0004525367)" d="M 23.259 16.2 L 20.659 6.828999999999999 C 19.51660406931918 2.704296695871472 15.712001122236959 -0.11235624122675425 11.433470216954674 -0.0009152161541461368 C 7.15493931167239 0.11052580891846198 3.5021239088051175 3.121418863410161 2.5760000000000005 7.299999999999999 L 0.565 16.35 C 0.3679007750525349 17.23807952995295 0.5844087258523825 18.16762283717408 1.1536345154013712 18.877210996960216 C 1.72286030495036 19.586799156746352 2.583311423582066 19.999776547416335 3.4930000000000003 20 L 7.1 20 C 7.573192465901289 22.330323978420097 9.622118389367248 24.005012562893377 12 24.005012562893377 C 14.37788161063275 24.005012562893377 16.42680753409871 22.330323978420097 16.9 20 L 20.369999999999997 20 C 21.306717744243407 19.99957336471949 22.189473627100966 19.56163689915045 22.756514630148526 18.816046652928748 C 23.323555633196083 18.070456406707045 23.50979152153063 17.102798155829714 23.259999999999998 16.2 Z M 12 22 C 10.733214572554608 21.994748606487097 9.606254552719513 21.194350865126943 9.184000000000001 20 L 14.816 20 C 14.393745447280487 21.194350865126943 13.266785427445392 21.994748606487097 12 22 Z M 21.165 17.605 C 20.97582634938301 17.85579745884113 20.679134997701016 18.002288813734115 20.365 18 L 3.493 18 C 3.189697641331546 17.999947953164803 2.9028096809700474 17.862244253590344 2.7130538135354154 17.62563268528302 C 2.5232979461007834 17.389021116975698 2.451183382734272 17.079075153254063 2.517 16.783 L 4.5280000000000005 7.7330000000000005 C 5.257104038775597 4.4536695281343395 8.124520986167173 2.0913912966891948 11.482773676578663 2.0034145360671474 C 14.841026366990151 1.9154377754451 17.82819542720406 4.124342345282553 18.728 7.361000000000003 L 21.328000000000003 16.732 C 21.414071768389764 17.032436524414642 21.353683861163756 17.355863782134296 21.165 17.605 Z" stroke-linecap="round" />
</g>
</svg>