<svg version="1.2" xmlns="http://www.w3.org/2000/svg" viewBox="0 0 512 512" width="512" height="512">
	<title>cross-svg</title>
	<style>
		.s0 { fill: #cacaca } 
	</style>
	<g id="Layer">
		<path id="Layer" class="s0" d="m286.2 255.9l219.5-219.6c8.2-8.5 8-22-0.5-30.2-8.2-8-21.4-8-29.6 0l-219.6 219.6-219.6-219.6c-8.5-8.2-22-7.9-30.2 0.5-7.9 8.3-7.9 21.4 0 29.7l219.6 219.6-219.6 219.6c-8.3 8.3-8.3 21.8 0 30.1 8.4 8.3 21.9 8.3 30.2 0l219.6-219.6 219.6 219.6c8.3 8.3 21.8 8.3 30.1 0 8.4-8.3 8.4-21.8 0-30.1z"/>
	</g>
</svg>