<svg version="1.2" xmlns="http://www.w3.org/2000/svg" viewBox="0 0 24 24" width="24" height="24"><title>coeur-svg</title><style>.s0 { fill: #cacaca } </style><g id="_01_align_center"><path id="Layer" class="s0" d="m17.5 0.9q-0.8 0-1.7 0.3-0.8 0.2-1.5 0.6-0.7 0.5-1.3 1.1-0.6 0.6-1 1.3-0.4-0.7-1-1.3-0.6-0.6-1.3-1.1-0.7-0.4-1.5-0.6-0.9-0.3-1.7-0.3-1.3 0.1-2.6 0.6-1.2 0.6-2.1 1.6-0.9 1-1.4 2.3-0.4 1.2-0.4 2.6c0 6.7 11 14.6 11.4 14.9l0.6 0.4 0.6-0.4c0.4-0.3 11.4-8.2 11.4-14.9q0-1.4-0.4-2.6-0.5-1.3-1.4-2.3-0.9-1-2.1-1.6-1.3-0.5-2.6-0.6zm-5.5 19.9c-3.3-2.4-10-8.4-10-12.8q0-1 0.3-1.9 0.3-0.9 0.9-1.6 0.6-0.7 1.5-1.1 0.9-0.4 1.8-0.5 0.9 0.1 1.8 0.5 0.9 0.4 1.5 1.1 0.6 0.7 0.9 1.6 0.3 0.9 0.3 1.9h2q0-1 0.3-1.9 0.3-0.9 0.9-1.6 0.6-0.7 1.5-1.1 0.9-0.4 1.8-0.5 0.9 0.1 1.8 0.5 0.9 0.4 1.5 1.1 0.6 0.7 0.9 1.6 0.3 0.9 0.3 1.9c0 4.4-6.7 10.4-10 12.8z"/></g></svg>