<svg version="1.2" xmlns="http://www.w3.org/2000/svg" viewBox="0 0 24 24" width="24" height="24"><title>coeur (1)-svg</title><style>.s0 { fill: #f91880 } </style><g id="Layer 1"><path id="Layer" class="s0" d="m17.5 0.9q-0.8 0-1.7 0.3-0.8 0.2-1.5 0.6-0.7 0.5-1.3 1.1-0.6 0.6-1 1.3-0.4-0.7-1-1.3-0.6-0.6-1.3-1.1-0.7-0.4-1.5-0.6-0.9-0.3-1.7-0.3-1.3 0.1-2.6 0.6-1.2 0.6-2.1 1.6-0.9 1-1.4 2.3-0.4 1.2-0.4 2.6c0 6.7 11 14.6 11.4 14.9l0.6 0.4 0.6-0.4c0.4-0.3 11.4-8.2 11.4-14.9q0-1.4-0.4-2.6-0.5-1.3-1.4-2.3-0.9-1-2.1-1.6-1.3-0.5-2.6-0.6z"/></g></svg>