<?xml version="1.0" standalone="no"?>
<!DOCTYPE svg PUBLIC "-//W3C//DTD SVG 20010904//EN"
 "http://www.w3.org/TR/2001/REC-SVG-20010904/DTD/svg10.dtd">
<svg version="1.0" xmlns="http://www.w3.org/2000/svg"
 width="178.000000pt" height="173.000000pt" viewBox="0 0 178.000000 173.000000"
 preserveAspectRatio="xMidYMid meet">

<g transform="translate(0.000000,173.000000) scale(0.100000,-0.100000)"
fill="#000000" stroke="none">
<path d="M733 1715 c-281 -51 -516 -222 -638 -464 -59 -118 -81 -232 -54 -282
7 -15 7 -24 -1 -34 -18 -21 -8 -76 16 -92 19 -12 25 -11 64 22 23 19 49 35 58
34 13 0 13 -2 -3 -9 -11 -4 -33 -22 -49 -39 -33 -34 -57 -39 -76 -16 -18 22
-30 18 -30 -9 0 -28 33 -56 66 -56 12 0 33 9 48 21 30 24 50 17 40 -14 -11
-34 -7 -52 21 -97 26 -41 26 -43 10 -77 -16 -34 -16 -36 4 -64 18 -24 20 -35
13 -61 l-9 -33 -26 55 c-15 30 -34 87 -43 125 -9 39 -19 76 -20 83 -3 8 -15
12 -31 10 -22 -2 -29 -9 -31 -30 -9 -78 76 -280 170 -402 47 -60 67 -77 170
-136 65 -37 160 -82 215 -100 88 -30 112 -34 238 -38 159 -5 261 13 379 67
199 90 340 230 460 455 37 69 37 161 1 204 -14 16 -36 33 -50 36 -19 5 -25 13
-25 34 0 15 -5 33 -10 38 -7 7 -4 16 10 29 24 22 26 71 5 95 -14 16 -13 20 14
49 16 17 39 31 50 31 23 0 71 41 71 60 0 24 -22 50 -43 50 -12 0 -33 6 -46 13
-20 10 -25 20 -26 62 -4 109 -134 279 -279 364 -182 108 -429 153 -633 116z
m287 -75 c92 -22 224 -84 280 -131 l34 -29 -54 0 c-55 -1 -55 -1 -27 -16 15
-8 50 -18 76 -21 49 -6 50 -7 79 -65 2 -5 -41 -9 -95 -9 -110 -2 -88 -15 32
-19 60 -2 50 -4 -75 -16 -160 -14 -259 -30 -281 -46 -9 -6 8 -8 56 -4 183 15
325 18 399 7 44 -6 81 -9 83 -7 6 6 -24 64 -55 106 l-25 35 28 -25 c26 -23 81
-127 72 -137 -3 -2 -24 1 -48 6 -124 28 -323 22 -535 -14 -156 -27 -486 -113
-671 -175 -99 -33 -183 -60 -186 -60 -27 0 17 146 73 240 171 291 531 453 840
380z m374 -426 c32 -5 43 -10 34 -16 -7 -4 -34 -6 -60 -2 -27 3 -48 4 -48 1 0
-9 123 -47 152 -47 16 0 40 7 53 16 25 16 71 16 68 -1 -1 -5 -17 -13 -35 -17
-18 -4 -44 -10 -58 -13 -14 -4 -62 3 -106 14 -189 48 -330 36 -583 -49 -193
-64 -213 -69 -339 -80 -143 -13 -240 -43 -354 -111 -44 -26 -58 -20 -35 15 19
29 173 82 491 170 363 101 650 143 820 120z m255 -83 c14 -10 31 -16 40 -13 9
3 12 1 7 -6 -12 -20 -51 -13 -74 13 -26 30 -8 33 27 6z m-524 -31 c17 -4 26
-8 20 -9 -12 -2 16 -21 30 -21 6 0 3 5 -5 11 -12 9 -11 9 5 4 11 -4 34 -9 52
-10 18 -2 37 -6 43 -10 5 -3 10 -2 10 4 0 5 -6 11 -12 14 -7 3 -3 4 10 4 27
-2 28 -8 3 -38 -15 -19 -29 -24 -66 -24 -41 0 -50 4 -75 35 -36 44 -81 46
-138 6 -46 -32 -96 -45 -166 -46 -65 0 -56 7 35 24 41 8 99 26 129 40 57 27
74 29 125 16z m25 -126 c44 -11 73 -13 103 -6 23 4 94 5 157 1 63 -4 124 -8
136 -8 29 -1 62 -27 49 -39 -16 -16 -364 4 -489 28 -60 11 -114 20 -120 20 -6
0 -4 5 4 10 22 14 91 12 160 -6z m-541 -21 c-8 -9 -40 -36 -73 -60 -77 -57
-123 -58 -151 -3 -11 22 -12 30 -2 33 6 3 -6 3 -28 -1 -45 -6 -68 -24 -59 -46
7 -18 -37 -49 -62 -44 -10 2 -21 15 -25 31 -6 23 -4 27 13 27 13 0 18 -5 15
-14 -4 -10 -1 -13 9 -9 7 3 14 9 14 15 0 5 11 20 25 33 27 27 84 33 160 15 21
-5 44 -5 50 0 9 8 100 38 119 39 5 1 2 -7 -5 -16z m524 -48 c32 -8 71 -15 87
-15 16 0 32 -4 35 -10 4 -6 -12 -10 -40 -10 -109 0 -563 -57 -805 -101 -208
-38 -195 -36 -195 -20 0 8 34 24 83 41 70 23 88 26 112 17 37 -14 104 2 158
38 45 30 54 31 257 55 203 23 238 23 308 5z m195 -127 l8 -43 22 43 c12 23 29
42 37 42 21 0 20 -6 -20 -116 -19 -53 -33 -99 -31 -101 4 -4 82 134 107 190
16 35 43 38 29 3 -10 -28 -95 -194 -109 -215 -8 -12 -15 -10 -43 11 -122 93
-357 156 -546 145 -174 -9 -300 -69 -368 -175 -40 -62 -54 -72 -72 -49 -25 31
-100 177 -92 182 13 8 380 73 485 85 55 7 204 18 330 25 127 7 235 13 242 14
6 0 16 -18 21 -41z m261 -194 c-73 -75 -222 -164 -364 -217 -147 -55 -427
-105 -603 -108 l-77 -1 50 -10 c72 -13 259 -1 411 27 257 48 448 131 567 247
43 42 65 58 61 45 -24 -79 -155 -168 -345 -235 -193 -68 -465 -112 -693 -112
-148 0 -189 7 -241 44 l-30 21 40 5 40 5 -51 18 c-57 20 -100 58 -91 81 5 12
22 16 74 16 171 0 481 48 722 111 103 27 157 37 164 30 7 -7 -4 -15 -32 -27
-58 -23 -44 -30 19 -9 63 21 75 14 23 -14 -42 -22 -34 -27 15 -10 17 6 39 9
49 7 14 -3 11 -9 -17 -26 -41 -25 -37 -27 16 -8 22 7 45 11 52 9 14 -6 145 70
217 125 58 45 72 36 24 -14z m-779 -43 c0 -5 -8 -12 -17 -15 -28 -9 -265 -47
-269 -44 -1 2 1 9 5 17 5 7 58 20 127 31 145 22 154 22 154 11z m-502 -68 c2
-8 -6 -13 -22 -13 -25 0 -33 10 -19 24 10 10 36 3 41 -11z m1087 -209 c-93
-80 -214 -139 -348 -169 -130 -29 -327 -12 -442 36 -27 12 -18 13 95 20 231
13 433 50 616 113 54 19 104 35 109 35 6 0 -8 -15 -30 -35z"/>
<path d="M943 1623 c-23 -9 -15 -42 11 -49 29 -7 46 1 46 21 0 12 -31 37 -42
34 -2 0 -9 -3 -15 -6z"/>
<path d="M1014 1555 c-10 -25 4 -45 31 -45 30 0 43 24 25 45 -16 19 -49 19
-56 0z"/>
<path d="M580 1530 c-12 -7 -12 -13 -4 -27 15 -24 58 -24 62 1 6 30 -28 45
-58 26z"/>
<path d="M1154 1486 c-7 -19 13 -56 31 -56 17 0 19 23 5 51 -13 22 -28 25 -36
5z"/>
<path d="M1637 1119 c7 -7 15 -10 18 -7 3 3 -2 9 -12 12 -14 6 -15 5 -6 -5z"/>
<path d="M1238 1053 c7 -3 16 -2 19 1 4 3 -2 6 -13 5 -11 0 -14 -3 -6 -6z"/>
<path d="M540 935 c-24 -9 -29 -14 -15 -14 17 -1 18 -3 5 -12 -13 -9 -13 -10
0 -6 8 2 14 10 13 16 -2 6 3 11 11 11 8 0 18 5 21 10 7 12 9 12 -35 -5z"/>
<path d="M407 923 c-8 -8 32 -53 46 -53 5 0 -2 9 -17 21 -14 11 -24 25 -21 30
7 11 1 12 -8 2z"/>
<path d="M480 910 c-12 -7 -10 -9 7 -7 12 0 19 5 17 9 -6 10 -6 10 -24 -2z"/>
<path d="M1005 770 c17 -5 71 -18 120 -30 50 -12 110 -30 134 -41 24 -10 46
-18 48 -16 2 2 -9 16 -23 31 -35 35 -105 54 -217 61 -65 3 -83 2 -62 -5z"/>
<path d="M1704 926 c-10 -26 4 -48 28 -44 17 2 23 10 23 28 0 18 -6 26 -23 28
-13 2 -25 -3 -28 -12z"/>
</g>
</svg>
