<svg version="1.2" xmlns="http://www.w3.org/2000/svg" viewBox="0 0 178 173" width="178" height="173">
	<title>logo-svg</title>
	<style>
		.s0 { fill: #7b9201 } 
		.s1 { fill: #ed9c28 } 
		.s2 { fill: #654b30 } 
		.s3 { fill: #de3409 } 
		.s4 { fill: #000000 } 
	</style>
	<path id="Forme 4" fill-rule="evenodd" class="s0" d="m166 58l7 2-5 5-7-1-1-5 1-4z"/>
	<path id="Forme 5" fill-rule="evenodd" class="s1" d="m35 152l27 2 35-2 33-8 24-8 10-11 5-12-5-9-19 12-8 5-8-6-10-3-15 3-23 9-21 3-19 1-17 3 1 7 5 9z"/>
	<path id="Forme 11" fill-rule="evenodd" class="s2" d="m95 75l5 4 9 1 15 2 12 1 15 1h9l2-3-2-5-10-2h-22l-14-1h-10-6z"/>
	<path id="Forme 6" fill-rule="evenodd" class="s3" d="m22 101l19-2 15-3 25-3 22-3h17l9-4-3-4-10-1-12-2h-21l-21 4-8 6-8 2-7-2-6 2-8 1-5 3v4z"/>
	<path id="Forme 7" fill-rule="evenodd" class="s1" d="m23 105l3 9 6 7 4 4 9-4 16-11 28-1 16 1 19 4 9 5h7l8-10 4-10v-13h-10l-24 4-16 1-17 2-14 1-13 2-9 2-10 1-12 2-6 1z"/>
	<g id="Layer">
		<path id="Forme 1" fill-rule="evenodd" class="s1" d="m9 62l9-20 12-15 24-17 15-2 18-3 16 2 23 8 20 10 11 16 2 10-20-3-18-2-19 3-23 4-21 6-26 9-16 5-7 2-2-6z"/>
		<path id="Forme 2" fill-rule="evenodd" class="s0" d="m81 76l18-6 16 3 16-1 2-9-16-3-17 2-19 4-6 4z"/>
		<path id="Forme 3" fill-rule="evenodd" class="s0" d="m22 81l-3 5 3 6 7-1 8-1 15-2 6-5 7-7-4-3-11 2-15 1z"/>
		<path id="Forme 8" fill-rule="evenodd" class="s3" d="m52 118l-1 8h9l19-2 6-5-5-4-16 2z"/>
		<path id="Forme 9" fill-rule="evenodd" class="s3" d="m27 123l-3 4 2 2 6-1v-3z"/>
		<path id="Forme 10" fill-rule="evenodd" class="s0" d="m8 77l-2 6 2 3 5-2 8-4 11-3 17-2 17-5 13-4 9-2 14-3 9-1 17-1 9 2 12 1 7-1 3-1 2-5-1-3-11-2-21-2-22 2-22 4-22 5-24 6-19 7z"/>
		<path id="Layer" class="s4" d="m73.3 1.5c-28.1 5.1-51.6 22.2-63.8 46.4-5.9 11.8-8.1 23.2-5.4 28.2 0.7 1.5 0.7 2.4-0.1 3.4-1.8 2.1-0.8 7.6 1.6 9.2 1.9 1.2 2.5 1.1 6.4-2.2 2.3-1.9 4.9-3.5 5.8-3.4 1.3 0 1.3 0.2-0.3 0.9-1.1 0.4-3.3 2.2-4.9 3.9-3.3 3.4-5.7 3.9-7.6 1.6-1.8-2.2-3-1.8-3 0.9 0 2.8 3.3 5.6 6.6 5.6 1.2 0 3.3-0.9 4.8-2.1 3-2.4 5-1.7 4 1.4-1.1 3.4-0.7 5.2 2.1 9.7 2.6 4.1 2.6 4.3 1 7.7-1.6 3.4-1.6 3.6 0.4 6.4 1.8 2.4 2 3.5 1.3 6.1l-0.9 3.3-2.6-5.5c-1.5-3-3.4-8.7-4.3-12.5-0.9-3.9-1.9-7.6-2-8.3-0.3-0.8-1.5-1.2-3.1-1-2.2 0.2-2.9 0.9-3.1 3-0.9 7.8 7.6 28 17 40.2 4.7 6 6.7 7.7 17 13.6 6.5 3.7 16 8.2 21.5 10 8.8 3 11.2 3.4 23.8 3.8 15.9 0.5 26.1-1.3 37.9-6.7 19.9-9 34-23 46-45.5 3.7-6.9 3.7-16.1 0.1-20.4-1.4-1.6-3.6-3.3-5-3.6-1.9-0.5-2.5-1.3-2.5-3.4 0-1.5-0.5-3.3-1-3.8-0.7-0.7-0.4-1.6 1-2.9 2.4-2.2 2.6-7.1 0.5-9.5-1.4-1.6-1.3-2 1.4-4.9 1.6-1.7 3.9-3.1 5-3.1 2.3 0 7.1-4.1 7.1-6 0-2.4-2.2-5-4.3-5-1.2 0-3.3-0.6-4.6-1.3-2-1-2.5-2-2.6-6.2-0.4-10.9-13.4-27.9-27.9-36.4-18.2-10.8-42.9-15.3-63.3-11.6zm28.7 7.5c9.2 2.2 22.4 8.4 28 13.1l3.4 2.9h-5.4c-5.5 0.1-5.5 0.1-2.7 1.6 1.5 0.8 5 1.8 7.6 2.1 4.9 0.6 5 0.7 7.9 6.5 0.2 0.5-4.1 0.9-9.5 0.9-11 0.2-8.8 1.5 3.2 1.9 6 0.2 5 0.4-7.5 1.6-16 1.4-25.9 3-28.1 4.6-0.9 0.6 0.8 0.8 5.6 0.4 18.3-1.5 32.5-1.8 39.9-0.7 4.4 0.6 8.1 0.9 8.3 0.7 0.6-0.6-2.4-6.4-5.5-10.6l-2.5-3.5 2.8 2.5c2.6 2.3 8.1 12.7 7.2 13.7-0.3 0.2-2.4-0.1-4.8-0.6-12.4-2.8-32.3-2.2-53.5 1.4-15.6 2.7-48.6 11.3-67.1 17.5-9.9 3.3-18.3 6-18.6 6-2.7 0 1.7-14.6 7.3-24 17.1-29.1 53.1-45.3 84-38zm37.4 42.6c3.2 0.5 4.3 1 3.4 1.6-0.7 0.4-3.4 0.6-6 0.2-2.7-0.3-4.8-0.4-4.8-0.1 0 0.9 12.3 4.7 15.2 4.7 1.6 0 4-0.7 5.3-1.6 2.5-1.6 7.1-1.6 6.8 0.1-0.1 0.5-1.7 1.3-3.5 1.7-1.8 0.4-4.4 1-5.8 1.3-1.4 0.4-6.2-0.3-10.6-1.4-18.9-4.8-33-3.6-58.3 4.9-19.3 6.4-21.3 6.9-33.9 8-14.3 1.3-24 4.3-35.4 11.1-4.4 2.6-5.8 2-3.5-1.5 1.9-2.9 17.3-8.2 49.1-17 36.3-10.1 65-14.3 82-12zm25.5 8.3c1.4 1 3.1 1.6 4 1.3 0.9-0.3 1.2-0.1 0.7 0.6-1.2 2-5.1 1.3-7.4-1.3-2.6-3-0.8-3.3 2.7-0.6zm-52.4 3.1c1.7 0.4 2.6 0.8 2 0.9-1.2 0.2 1.6 2.1 3 2.1 0.6 0 0.3-0.5-0.5-1.1-1.2-0.9-1.1-0.9 0.5-0.4 1.1 0.4 3.4 0.9 5.2 1 1.8 0.2 3.7 0.6 4.3 1 0.5 0.3 1 0.2 1-0.4 0-0.5-0.6-1.1-1.2-1.4-0.7-0.3-0.3-0.4 1-0.4 2.7 0.2 2.8 0.8 0.3 3.8-1.5 1.9-2.9 2.4-6.6 2.4-4.1 0-5-0.4-7.5-3.5-3.6-4.4-8.1-4.6-13.8-0.6-4.6 3.2-9.6 4.5-16.6 4.6-6.5 0-5.6-0.7 3.5-2.4 4.1-0.8 9.9-2.6 12.9-4 5.7-2.7 7.4-2.9 12.5-1.6zm2.5 12.6c4.4 1.1 7.3 1.3 10.3 0.6 2.3-0.4 9.4-0.5 15.7-0.1 6.3 0.4 12.4 0.8 13.6 0.8 2.9 0.1 6.2 2.7 4.9 3.9-1.6 1.6-36.4-0.4-48.9-2.8-6-1.1-11.4-2-12-2-0.6 0-0.4-0.5 0.4-1 2.2-1.4 9.1-1.2 16 0.6zm-54.1 2.1c-0.8 0.9-4 3.6-7.3 6-7.7 5.7-12.3 5.8-15.1 0.3-1.1-2.2-1.2-3-0.2-3.3 0.6-0.3-0.6-0.3-2.8 0.1-4.5 0.6-6.8 2.4-5.9 4.6 0.7 1.8-3.7 4.9-6.2 4.4-1-0.2-2.1-1.5-2.5-3.1-0.6-2.3-0.4-2.7 1.3-2.7 1.3 0 1.8 0.5 1.5 1.4q-0.6 1.5 0.9 0.9c0.7-0.3 1.4-0.9 1.4-1.5 0-0.5 1.1-2 2.5-3.3 2.7-2.7 8.4-3.3 16-1.5 2.1 0.5 4.4 0.5 5 0 0.9-0.8 10-3.8 11.9-3.9 0.5-0.1 0.2 0.7-0.5 1.6zm52.4 4.8c3.2 0.8 7.1 1.5 8.7 1.5 1.6 0 3.2 0.4 3.5 1 0.4 0.6-1.2 1-4 1-10.9 0-56.3 5.7-80.5 10.1-20.8 3.8-19.5 3.6-19.5 2 0-0.8 3.4-2.4 8.3-4.1 7-2.3 8.8-2.6 11.2-1.7 3.7 1.4 10.4-0.2 15.8-3.8 4.5-3 5.4-3.1 25.7-5.5 20.3-2.3 23.8-2.3 30.8-0.5zm19.5 12.7l0.8 4.3 2.2-4.3c1.2-2.3 2.9-4.2 3.7-4.2 2.1 0 2 0.6-2 11.6-1.9 5.3-3.3 9.9-3.1 10.1 0.4 0.4 8.2-13.4 10.7-19 1.6-3.5 4.3-3.8 2.9-0.3-1 2.8-9.5 19.4-10.9 21.5-0.8 1.2-1.5 1-4.3-1.1-12.2-9.3-35.7-15.6-54.6-14.5-17.4 0.9-30 6.9-36.8 17.5-4 6.2-5.4 7.2-7.2 4.9-2.5-3.1-10-17.7-9.2-18.2 1.3-0.8 38-7.3 48.5-8.5 5.5-0.7 20.4-1.8 33-2.5 12.7-0.7 23.5-1.3 24.2-1.4 0.6 0 1.6 1.8 2.1 4.1zm26.1 19.4c-7.3 7.5-22.2 16.4-36.4 21.7-14.7 5.5-42.7 10.5-60.3 10.8l-7.7 0.1 5 1c7.2 1.3 25.9 0.1 41.1-2.7 25.7-4.8 44.8-13.1 56.7-24.7 4.3-4.2 6.5-5.8 6.1-4.5-2.4 7.9-15.5 16.8-34.5 23.5-19.3 6.8-46.5 11.2-69.3 11.2-14.8 0-18.9-0.7-24.1-4.4l-3-2.1 4-0.5 4-0.5-5.1-1.8c-5.7-2-10-5.8-9.1-8.1 0.5-1.2 2.2-1.6 7.4-1.6 17.1 0 48.1-4.8 72.2-11.1 10.3-2.7 15.7-3.7 16.4-3 0.7 0.7-0.4 1.5-3.2 2.7-5.8 2.3-4.4 3 1.9 0.9 6.3-2.1 7.5-1.4 2.3 1.4-4.2 2.2-3.4 2.7 1.5 1 1.7-0.6 3.9-0.9 4.9-0.7 1.4 0.3 1.1 0.9-1.7 2.6-4.1 2.5-3.7 2.7 1.6 0.8 2.2-0.7 4.5-1.1 5.2-0.9 1.4 0.6 14.5-7 21.7-12.5 5.8-4.5 7.2-3.6 2.4 1.4zm-77.9 4.3c0 0.5-0.8 1.2-1.7 1.5-2.8 0.9-26.5 4.7-26.9 4.4-0.1-0.2 0.1-0.9 0.5-1.7 0.5-0.7 5.8-2 12.7-3.1 14.5-2.2 15.4-2.2 15.4-1.1zm-50.2 6.8c0.2 0.8-0.6 1.3-2.2 1.3-2.5 0-3.3-1-1.9-2.4 1-1 3.6-0.3 4.1 1.1zm108.7 20.9c-9.3 8-21.4 13.9-34.8 16.9-13 2.9-32.7 1.2-44.2-3.6-2.7-1.2-1.8-1.3 9.5-2 23.1-1.3 43.3-5 61.6-11.3 5.4-1.9 10.4-3.5 10.9-3.5 0.6 0-0.8 1.5-3 3.5z"/>
		<path id="Layer" class="s4" d="m94.3 10.7c-2.3 0.9-1.5 4.2 1.1 4.9 2.9 0.7 4.6-0.1 4.6-2.1 0-1.2-3.1-3.7-4.2-3.4-0.2 0-0.9 0.3-1.5 0.6z"/>
		<path id="Layer" class="s4" d="m101.4 17.5c-1 2.5 0.4 4.5 3.1 4.5 3 0 4.3-2.4 2.5-4.5-1.6-1.9-4.9-1.9-5.6 0z"/>
		<path id="Layer" class="s4" d="m58 20c-1.2 0.7-1.2 1.3-0.4 2.7 1.5 2.4 5.8 2.4 6.2-0.1 0.6-3-2.8-4.5-5.8-2.6z"/>
		<path id="Layer" class="s4" d="m115.4 24.4c-0.7 1.9 1.3 5.6 3.1 5.6 1.7 0 1.9-2.3 0.5-5.1-1.3-2.2-2.8-2.5-3.6-0.5z"/>
		<path id="Layer" class="s4" d="m163.7 61.1c0.7 0.7 1.5 1 1.8 0.7 0.3-0.3-0.2-0.9-1.2-1.2-1.4-0.6-1.5-0.5-0.6 0.5z"/>
		<path id="Layer" class="s4" d="m123.8 67.7c0.7 0.3 1.6 0.2 1.9-0.1 0.4-0.3-0.2-0.6-1.3-0.5-1.1 0-1.4 0.3-0.6 0.6z"/>
		<path id="Layer" class="s4" d="m54 79.5c-2.4 0.9-2.9 1.4-1.5 1.4 1.7 0.1 1.8 0.3 0.5 1.2-1.3 0.9-1.3 1 0 0.6 0.8-0.2 1.4-1 1.3-1.6-0.2-0.6 0.3-1.1 1.1-1.1 0.8 0 1.8-0.5 2.1-1 0.7-1.2 0.9-1.2-3.5 0.5z"/>
		<path id="Layer" class="s4" d="m40.7 80.7c-0.8 0.8 3.2 5.3 4.6 5.3 0.5 0-0.2-0.9-1.7-2.1-1.4-1.1-2.4-2.5-2.1-3 0.7-1.1 0.1-1.2-0.8-0.2z"/>
		<path id="Layer" class="s4" d="m48 82c-1.2 0.7-1 0.9 0.7 0.7 1.2 0 1.9-0.5 1.7-0.9-0.6-1-0.6-1-2.4 0.2z"/>
		<path id="Layer" class="s4" d="m100.5 96c1.7 0.5 7.1 1.8 12 3 5 1.2 11 3 13.4 4.1 2.4 1 4.6 1.8 4.8 1.6 0.2-0.2-0.9-1.6-2.3-3.1-3.5-3.5-10.5-5.4-21.7-6.1-6.5-0.3-8.3-0.2-6.2 0.5z"/>
		<path id="Layer" class="s4" d="m170.4 80.4c-1 2.6 0.4 4.8 2.8 4.4 1.7-0.2 2.3-1 2.3-2.8 0-1.8-0.6-2.6-2.3-2.8-1.3-0.2-2.5 0.3-2.8 1.2z"/>
	</g>
</svg>