<svg version="1.2" xmlns="http://www.w3.org/2000/svg" viewBox="0 0 24 24" width="24" height="24">
	<title>menu-dots-vertical-svg</title>
	<style>
		.s0 { fill: #cacaca } 
	</style>
	<g id="Layer 1">
		<path id="Layer" class="s0" d="m12 4c-1.1 0-2-0.9-2-2 0-1.1 0.9-2 2-2 1.1 0 2 0.9 2 2 0 1.1-0.9 2-2 2z"/>
		<path id="Layer" class="s0" d="m12 14c-1.1 0-2-0.9-2-2 0-1.1 0.9-2 2-2 1.1 0 2 0.9 2 2 0 1.1-0.9 2-2 2z"/>
		<path id="Layer" class="s0" d="m12 24c-1.1 0-2-0.9-2-2 0-1.1 0.9-2 2-2 1.1 0 2 0.9 2 2 0 1.1-0.9 2-2 2z"/>
	</g>
</svg>