<?xml version="1.0" standalone="no"?>
<!DOCTYPE svg PUBLIC "-//W3C//DTD SVG 20010904//EN"
 "http://www.w3.org/TR/2001/REC-SVG-20010904/DTD/svg10.dtd">
<svg version="1.0" xmlns="http://www.w3.org/2000/svg"
 width="512.000000pt" height="512.000000pt" viewBox="0 0 512.000000 512.000000"
 preserveAspectRatio="xMidYMid meet">

<g transform="translate(0.000000,512.000000) scale(0.100000,-0.100000)"
fill="#000000" stroke="none">
<path d="M1802 4590 c-108 -29 -207 -84 -282 -160 -42 -43 -119 -146 -218
-297 l-154 -231 -316 -5 c-352 -5 -380 -9 -507 -75 -99 -51 -208 -163 -258
-263 -70 -143 -68 -88 -65 -1387 l3 -1167 22 -65 c65 -190 220 -343 408 -403
l70 -22 2055 0 2055 0 70 22 c188 60 343 213 408 403 l22 65 3 1167 c3 1299 5
1244 -65 1387 -50 100 -159 212 -258 263 -127 66 -155 70 -507 75 l-316 5
-154 231 c-174 264 -243 341 -355 400 -149 78 -140 77 -907 76 -637 0 -686 -1
-754 -19z m887 -831 c473 -44 891 -330 1104 -755 202 -403 189 -900 -35 -1290
-412 -719 -1338 -920 -2011 -436 -103 74 -259 237 -329 342 -108 165 -181 344
-214 530 -23 127 -23 353 0 480 29 164 104 359 184 484 261 405 668 636 1152
655 19 0 86 -4 149 -10z m1810 -383 c98 -51 129 -172 67 -266 -39 -60 -81 -74
-229 -78 -188 -6 -256 17 -297 98 -43 85 -14 188 66 236 37 23 49 24 202 24
123 0 170 -4 191 -14z"/>
<path d="M2462 3150 c-252 -35 -464 -184 -582 -411 -60 -115 -82 -210 -82
-349 0 -240 98 -448 282 -597 137 -111 297 -166 480 -166 183 0 343 55 480
166 184 149 282 357 282 597 0 185 -55 343 -170 486 -159 197 -439 308 -690
274z"/>
</g>
</svg>
