<?xml version="1.0" encoding="UTF-8" standalone="no" ?>
<!DOCTYPE svg PUBLIC "-//W3C//DTD SVG 1.1//EN" "http://www.w3.org/Graphics/SVG/1.1/DTD/svg11.dtd">
<svg xmlns="http://www.w3.org/2000/svg" xmlns:xlink="http://www.w3.org/1999/xlink" version="1.1" width="512" height="512" viewBox="0 0 512 512" xml:space="preserve">
<desc>Created with Fabric.js 5.3.0</desc>
<defs>
</defs>
<g transform="matrix(21.3333333333 0 0 21.3333333333 256 256)" id="wtDplbHCA5mWYvXB-efXR"  >
<path style="stroke: none; stroke-width: 1; stroke-dasharray: none; stroke-linecap: butt; stroke-dashoffset: 0; stroke-linejoin: miter; stroke-miterlimit: 4; fill: rgb(255,255,255); fill-rule: nonzero; opacity: 1;"  transform=" translate(-11.9778449426, -11.9778449426)" d="M 23.707 22.293 L 17.738 16.323999999999998 C 21.11633319814323 12.19220317409906 20.661386315575008 6.137119468107837 16.703584623875045 2.5565209179519197 C 12.74578293217508 -1.0240776322039977 6.675529265105 -0.8723022391353759 2.901613512984813 2.9016135129848113 C -0.8723022391353723 6.6755292651049984 -1.0240776322039977 12.745782932175082 2.5565209179519197 16.703584623875045 C 6.137119468107837 20.661386315575008 12.192203174099058 21.11633319814323 16.323999999999998 17.738 L 22.293 23.707 C 22.685378886964305 24.08597220950814 23.30908477702114 24.080552373897152 23.694818575459145 23.694818575459145 C 24.080552373897152 23.30908477702114 24.08597220950814 22.685378886964305 23.707 22.293 Z M 10 18 C 5.581722001353652 18 2 14.418277998646348 2 10 C 2 5.581722001353652 5.581722001353652 2 10 2 C 14.418277998646348 2 18 5.581722001353651 18 9.999999999999998 C 17.995040115451747 14.416221915644753 14.416221915644753 17.995040115451747 10 18 Z" stroke-linecap="round" />
</g>
</svg>