<svg version="1.2" xmlns="http://www.w3.org/2000/svg" viewBox="0 0 660 617" width="660" height="617">
	<title>stars-svg</title>
	<style>
		.s0 { fill: #0099ff } 
	</style>
	<g id="Layer">
		<path id="Layer" fill-rule="evenodd" class="s0" d="m318.6 7.3c-8.8 3.1-12.1 6.7-19.7 21-3.9 7.2-22.1 43.3-40.7 80.3-36.1 72.1-37.3 74.2-46.8 78.6-3.5 1.7-23.2 4.7-93.9 14.8-84.7 12.1-89.8 12.9-95.7 15.7-10.7 5.3-16.8 16.3-15.6 28.6 1 11 0.6 10.6 59 66.3 83.7 79.9 79.9 75.9 82.1 86.4 0.9 4.3-0.6 13.9-14.3 92.2-11.7 67-15.2 88.6-14.8 92.9 0.8 9.9 6.9 18.6 16.2 23.1 4.8 2.4 6.7 2.8 13.9 2.8h8.4l78.9-40.8c43.4-22.4 80.9-41.5 83.5-42.4 2.4-0.9 7-1.7 9.9-1.7 2.9 0 7.5 0.8 9.9 1.7 2.6 0.9 40.1 20 83.5 42.4l78.9 40.8h8.4c7.2 0 9.1-0.4 13.9-2.8 9.3-4.5 15.4-13.2 16.2-23.1 0.4-4.3-3.1-25.9-14.8-92.9-13.7-78.3-15.2-87.9-14.3-92.2 2.2-10.5-1.6-6.5 82.1-86.4 58.4-55.7 58-55.3 59-66.3 1.2-12.3-4.9-23.3-15.6-28.6-5.9-2.8-11-3.6-95.7-15.7-70.7-10.1-90.4-13.1-93.9-14.8-9.5-4.4-10.3-5.7-52.8-90.3-42.5-84.6-42.4-84.5-51.9-88.7-6.4-2.8-16.8-3.3-23.3-0.9z"/>
	</g>
</svg>